<?xml version="1.0" encoding="UTF-8" standalone="no"?>
<!-- Created with Inkscape (http://www.inkscape.org/) -->

<svg
   xmlns:dc="http://purl.org/dc/elements/1.1/"
   xmlns:cc="http://creativecommons.org/ns#"
   xmlns:rdf="http://www.w3.org/1999/02/22-rdf-syntax-ns#"
   xmlns:svg="http://www.w3.org/2000/svg"
   xmlns="http://www.w3.org/2000/svg"
   xmlns:sodipodi="http://sodipodi.sourceforge.net/DTD/sodipodi-0.dtd"
   xmlns:inkscape="http://www.inkscape.org/namespaces/inkscape"
   version="1.1"
   width="800"
   height="90"
   id="svg2"
   inkscape:version="0.48.1 "
   sodipodi:docname="Quaestio.svg">
  <sodipodi:namedview
     pagecolor="#ffffff"
     bordercolor="#666666"
     borderopacity="1"
     objecttolerance="10"
     gridtolerance="10"
     guidetolerance="10"
     inkscape:pageopacity="0"
     inkscape:pageshadow="2"
     inkscape:window-width="1280"
     inkscape:window-height="738"
     id="namedview23"
     showgrid="false"
     inkscape:zoom="1.2105263"
     inkscape:cx="377.94817"
     inkscape:cy="60"
     inkscape:window-x="-8"
     inkscape:window-y="-8"
     inkscape:window-maximized="1"
     inkscape:current-layer="svg2" />
  <metadata
     id="metadata8">
    <rdf:RDF>
      <cc:Work
         rdf:about="">
        <dc:format>image/svg+xml</dc:format>
        <dc:type
           rdf:resource="http://purl.org/dc/dcmitype/StillImage" />
        <dc:title />
      </cc:Work>
    </rdf:RDF>
  </metadata>

      <path
         d=",70.5 35.837022,70.864742 c -8.854454,0.908632 -14.813828,-2.76226 -16.368844,-6.249467 -3.687844,-8.27019 -0.514191,-15.074579 4.343467,-19.74598 3.7049,-3.562842 8.864323,-4.613329 15.178063,-2.721686 7.470691,2.238274 7.558085,2.576037 6.944787,26.84075 -0.566052,22.395454 -0.874445,23.728156 -4.891952,21.140292 z M 39.355319,63.267865 c 3.065708,-4.511594 2.996904,-13.631547 0.345057,-16.283393 -1.985569,-1.98557 -7.700915,-2.44891 -10.481684,-0.501183 -4.723387,3.308389 -7.417629,12.248959 -5.322879,15.398527 1.38672,2.085007 4.878639,4.625095 8.589941,4.665104 3.188902,0.03438 4.692039,-0.07454 6.869565,-3.279055 z M 333.04254,89.128651 c -0.95464,-0.614932 -1.393,-3.610019 -1.5,-10.248747 L 331.39137,69.5 l -5.41304,0.777786 c -4.96358,0.713203 -12.95514,-3.175304 -14.51015,-6.662511 -3.68785,-8.27019 -1.067,-14.517116 3.46727,-19.161849 3.81664,-3.909627 9.74052,-5.19746 16.05426,-3.305817 7.52682,2.255092 7.60833,2.569045 6.9683,26.840799 -0.59047,22.392098 -0.9007,23.72634 -4.91547,21.140243 z m -1.68722,-26.860786 c 3.06571,-4.511594 2.9969,-13.631547 0.34505,-16.283393 -1.98557,-1.98557 -7.70091,-2.44891 -10.48168,-0.501183 -4.72338,3.308389 -8.24372,12.558742 -6.14897,15.70831 1.38672,2.085007 4.87865,4.10879 8.58995,4.148799 3.1889,0.03438 5.51812,0.131985 7.69565,-3.072533 z M 621.9443,83.563779 c -0.96592,-1.163867 -1.00311,-2.267938 -0.15804,-4.692112 0.60781,-1.743563 1.10511,-5.516006 1.10511,-8.383209 l 0,-5.213095 -5.53395,-0.650407 c -8.10507,-0.952592 -13.46605,-4.283373 -13.46605,-8.366466 0,-3.384343 5.44688,-10.624299 9.41758,-12.517797 4.09253,-1.951589 11.75734,-3.164591 14.94355,-2.364904 2.23727,0.561521 2.41785,1.147799 2.88336,9.361623 0.44481,7.848387 0.28162,8.999091 -1.56411,11.029466 -1.69906,1.869038 -2.15897,4.060961 -2.62055,12.489538 -0.45263,8.265136 -0.86467,10.280749 -2.15179,10.526011 -0.87558,0.166843 -2.16038,-0.381549 -2.85511,-1.218648 z m 2.4981,-26.03166 c 0.79693,-1.907335 1.44897,-5.507335 1.44897,-8 0,-4.504448 -0.0212,-4.532119 -3.46607,-4.532119 -6.31134,0 -14.53393,6.12515 -14.53393,10.826578 0,2.146549 6.30808,5.165779 10.80103,5.169684 3.96401,0.0034 4.41456,-0.267991 5.75,-3.464143 z m 114.70513,26.493079 c -7.56315,-1.795474 -8.70728,-8.306342 -2.6398,-15.022317 3.93699,-4.357774 8.93885,-4.055135 13.34898,-2.916895 3.45025,0.890498 8.03466,3.036772 8.03466,7.051184 0,4.31713 -1.3782,6.30839 -6.40524,9.254428 -4.57664,2.682092 -6.72426,2.966431 -12.3386,1.6336 z m 11.37581,-4.106757 c 3.40392,-2.103742 3.0313,-6.917128 0.90235,-9.097524 -3.10227,-3.177223 -10.46818,-2.523871 -13.28432,0.998063 -1.87325,2.342729 -1.56814,7.896342 0.5,9.100921 2.87455,1.674271 8.29124,1.21773 11.88197,-1.00146 z m 56.14473,1.299277 c -3.27667,-2.043179 -4.40731,-6.281067 -2.74589,-10.292105 1.66808,-4.027107 10.95978,-7.00256 14.92222,-4.778498 5.20776,2.923039 5.23602,10.157958 0.0541,13.84782 -4.00668,2.853007 -8.84091,3.336328 -12.23041,1.222783 z m 10.39456,-3.872706 C 820.06154,74.631039 819.16549,69 815.73472,69 c -3.97918,0 -7.84335,2.886551 -7.84335,5.859013 0,1.54421 0.3,3.107654 0.66667,3.47432 1.28138,1.281384 6.69128,0.652698 8.50459,-0.988321 z m 48.21352,-5.058754 c -1.60725,-1.133157 -2.47423,-4.571345 -1.53104,-6.07169 2.01031,-3.197821 13.14626,-2.647645 13.14626,0.649496 0,3.747442 -8.41732,7.676797 -11.61522,5.422194 z m -679.9022,-4.547585 c -3.52707,-3.033854 -4.42392,-11.862153 -2.18189,-21.477636 0.86705,-3.71857 2.13031,-9.369077 2.80723,-12.556681 1.31745,-6.203826 1.88006,-7.029934 4.18524,-6.145355 1.28195,0.491931 1.29369,1.163416 0.0902,5.162175 -0.76083,2.528177 -1.38336,5.875167 -1.38336,7.437755 0,2.825157 0.0358,2.841069 6.39301,2.841069 4.6982,0 6.54235,0.389166 6.95633,1.467975 0.74532,1.942278 0.24013,2.150791 -7.16686,2.958074 -9.32823,1.016677 -9.18248,0.886824 -9.18248,8.18094 0,10.313097 2.78266,11.769335 16.8774,8.832374 5.25914,-1.095862 3.47605,1.585461 -2.43881,3.667357 -7.05023,2.481522 -11.77846,2.365167 -14.95601,-0.368047 z M 72.89137,68.306019 c -0.825,-0.294848 -2.043644,-1.219543 -2.708098,-2.054878 -1.078635,-1.356034 -1.569182,-1.347446 -4.577597,0.08014 -4.473157,2.122652 -10.66511,1.401411 -12.386501,-1.953741 -1.280996,-2.49678 -1.026891,-8.399939 -0.343315,-13.00316 0.495926,-3.339586 0.924431,-5.99497 2.575623,-6.169047 1.98502,-0.209271 2.042533,0.07299 1.630031,8.700837 0,0 -1.27223,6.391515 0.705789,8.37594 1.609868,1.615082 4.865638,1.779568 6.815107,0.596466 3.134282,-1.902146 4.442298,-4.34071 4.207761,-10.162266 -0.201039,-4.990067 -0.276424,-10.048415 3.337353,-9.466378 0.894179,0.144017 1.332599,3.619419 1.531193,10.795347 0.307534,11.112281 0.682227,11.913271 5.585099,11.939408 2.439248,0.013 2.684702,0.241529 1.627555,1.515313 -1.223873,1.474676 -5.050337,1.860202 -8,0.806019 z m 34,0 c -0.825,-0.294848 -2.04364,-1.219543 -2.7081,-2.054878 -1.07863,-1.356034 -1.56918,-1.347446 -4.577595,0.08014 -8.158389,3.871409 -14.440274,-0.553794 -13.388828,-9.43161 1.301592,-10.98991 8.69912,-16.523912 16.615763,-12.430056 3.55512,1.838426 5.05876,6.021288 5.05876,14.072619 0,6.679945 0.59493,7.457766 5.70423,7.457766 2.14498,0 2.34678,0.233607 1.29577,1.5 -1.22387,1.474676 -5.05034,1.860202 -8,0.806019 z M 99.9943,61.291291 c 3.93955,-3.134543 3.34309,-16.342673 -2.996686,-14.802993 -4.197286,1.019355 -6.058928,4.286822 -6.084008,10.678369 -0.03102,7.90464 6.479186,6.194539 9.080694,4.124624 z m 29.39707,6.779996 c -6.44656,-1.555747 -10.5,-5.360471 -10.5,-9.855719 0,-1.28668 0.12044,-4.570238 1.52972,-7.54921 2.21832,-4.689155 4.11855,-5.763831 7.49514,-6.673052 5.28012,-1.421789 8.72929,-0.369408 10.59143,3.231568 3.1402,6.072479 -1.87188,11.763917 -10.36629,11.771388 -4.48002,0.0039 -4.38155,1.621302 -1.55734,3.965174 0.8617,0.715146 3.19983,2.070299 7.63305,1.822564 3.0967,-0.173048 6.61106,-1.714995 9.90925,-2.317269 2.87055,-0.524183 4.5617,-0.194241 7.30716,1.425619 6.23879,3.680976 17.45788,2.153918 17.45788,-2.376234 C 168.89137,59.176863 164.0151,56 160.4245,56 c -2.86199,0 -5.20966,-1.804859 -6.54685,-5.033132 -1.15985,-2.800126 -1.07607,-3.321518 0.8419,-5.239489 2.91392,-2.913923 14.79467,-3.873788 15.7916,-1.275829 1.04239,2.716421 -1.15344,4.135988 -4.02253,2.600498 -3.57482,-1.913185 -7.59725,-0.634063 -7.59725,2.415904 0,2.060556 0.81406,2.686459 5.35634,4.118287 13.87743,4.374473 11.09212,13.732339 1.45389,14.958986 -5.48274,0.697783 -9.38308,0.597985 -14.718,-1.0173 -5.72995,-1.734889 -6.36019,-1.745198 -11.19681,-0.183146 -5.53449,1.787443 -5.89486,1.812628 -10.39542,0.726508 z m 2.56574,-14.106471 c 1.24464,-0.66611 1.93426,-2.092229 1.93426,-4 0,-2.611238 -0.34912,-2.964816 -2.92742,-2.964816 -2.99698,0 -7.07258,3.823363 -7.07258,6.634859 0,1.638778 5.2211,1.852365 8.06574,0.329957 z m 102.96326,13.674356 c -6.73944,-2.520413 -8.29485,-8.971983 -4.40661,-18.277857 3.11618,-7.458067 19.58221,-8.557266 24.13355,-1.611047 6.9832,10.657718 -6.92244,24.677527 -19.72694,19.888904 z m 13.78116,-5.757829 c 4.08638,-3.995192 4.57997,-10.794248 0.96733,-13.324639 -6.7275,-4.712124 -16.77749,0.299471 -16.77749,8.366373 0,5.534113 2.61624,8.076923 8.31016,8.076923 3.47696,0 4.92679,-0.60287 7.5,-3.118657 z m -32.49488,4.786852 C 212.03064,64.591897 210.78132,58.086157 213.19781,51 c 0.65646,-1.925 1.86856,-3.5 2.69356,-3.5 1.22761,0 1.43599,1.313992 1.14753,7.235794 -0.34161,7.013101 -0.27237,7.266245 2.25,8.225249 2.89921,1.102277 3.45124,3.499275 1.02068,4.431968 -0.86998,0.333844 -1.65748,0.551736 -1.75,0.484205 -0.0925,-0.06753 -1.15133,-0.611591 -2.35293,-1.209021 z m 312.71372,-0.02902 c -6.73944,-2.520413 -8.29485,-8.971983 -4.40661,-18.277857 3.11618,-7.458067 19.58221,-8.557266 24.13355,-1.611047 6.9832,10.657718 -6.92244,24.677527 -19.72694,19.888904 z m 13.78116,-5.757829 c 4.08638,-3.995192 4.57997,-10.794248 0.96733,-13.324639 -6.7275,-4.712124 -16.77749,0.299471 -16.77749,8.366373 0,5.534113 2.61624,8.076923 8.31016,8.076923 3.47696,0 4.92679,-0.60287 7.5,-3.118657 z m 375.85651,6.45199 c -0.36667,-0.366666 -0.66667,-1.520178 -0.66667,-2.563358 0,-2.995859 6.38521,-2.078253 6.81955,0.980025 0.26842,1.889993 -0.55796,3.076087 -2.99637,3.076087 -1.59659,0 -2.78985,-1.126087 -3.15651,-1.492754 z M 645.14206,62.509421 c -4.38609,-1.906388 -5.66058,-5.073199 -4.80326,-11.934973 0.77696,-6.218546 5.89583,-8.779327 10.54101,-9.203603 4.09239,-0.373786 8.73254,-0.13846 10.60187,6.291798 2.15756,7.421768 1.26759,11.843485 -2.89457,14.381315 -3.7351,2.277435 -8.8674,2.455113 -13.44505,0.465463 z m 10.961,-3.529453 c 3.08043,-2.783063 2.50206,-8.95638 1.18132,-12.398181 -0.91139,-2.375056 -7.88016,-2.094634 -10.39301,0.418213 -2.65017,2.650172 -2.81328,10.42693 -0.25,11.919901 1.95854,1.140745 7.12141,2.174431 9.46169,0.06007 z m 155.83836,-3.886453 c -0.76058,-1.421149 -0.52416,-3.02815 0.92871,-6.31259 3.06682,-6.933052 5.02124,-15.655422 5.02124,-22.409236 0,-8.332915 -0.51228,-9.371689 -4.62169,-9.371689 -3.7835,0 -7.36737,4.307473 -7.37457,8.863544 -0.004,2.234879 0.24123,2.326809 4.49626,1.688727 4.01232,-0.601685 4.5,-0.46561 4.5,1.255614 0,2.64006 -6.06299,3.610463 -10.63151,1.701613 -4.44281,-1.856325 -4.47748,-5.353323 -0.11849,-11.953002 3.62039,-5.481417 6.94292,-7.118089 12.37958,-6.098165 6.81174,1.277891 7.91227,10.635492 3.29251,27.995682 -1.03126,3.875293 -1.88561,8.438743 -1.89855,10.140999 -0.013,1.703148 -0.84595,3.839281 -1.85228,4.75 -2.33478,2.112943 -2.87339,2.080074 -4.12121,-0.251497 z M 746.9443,53.563779 c -0.96592,-1.163867 -1.00311,-2.267938 -0.15804,-4.692112 0.60781,-1.743563 1.10511,-5.516006 1.10511,-8.383209 l 0,-5.213095 -5.53395,-0.650407 c -8.10507,-0.952592 -13.46605,-4.283373 -13.46605,-8.366466 0,-3.384343 5.44688,-10.624299 9.41758,-12.517797 4.09253,-1.951589 11.75734,-3.164591 14.94355,-2.364904 2.23727,0.561521 2.41785,1.147799 2.88336,9.361623 0.44481,7.848387 0.28162,8.999091 -1.56411,11.029466 -1.69906,1.869038 -2.15897,4.060961 -2.62055,12.489538 -0.45263,8.265136 -0.86467,10.280749 -2.15179,10.526011 -0.87558,0.166843 -2.16038,-0.381549 -2.85511,-1.218648 z m 2.4981,-26.03166 c 0.79693,-1.907335 1.44897,-5.507335 1.44897,-8 0,-4.504448 -0.0212,-4.532119 -3.46607,-4.532119 -6.31134,0 -14.53393,6.12515 -14.53393,10.826578 0,2.146549 6.30808,5.165779 10.80103,5.169684 3.96401,0.0034 4.41456,-0.267991 5.75,-3.464143 z m 169.87603,24.716628 c -3.82414,-2.668655 -2.05872,-9.602781 3.60331,-14.152913 2.61064,-2.217226 5.26627,-7.796505 2.7305,-10.269747 -2.92427,-2.852163 -11.65804,-0.317546 -11.76087,3.443464 0,1.366809 -0.60505,1.78362 -2.25,1.55 -3.69677,-0.525026 -3.19882,-6.837842 0.68624,-8.699906 4.32023,-2.070632 9.10279,-2.776895 13.45841,-1.339412 3.29534,1.087561 5.96972,1.97014 6.46924,5.094214 0.87244,5.456299 -0.25799,8.231275 -5.09969,12.518749 -4.01275,3.553414 -4.37064,4.250768 -4.10065,7.990218 0.2983,4.131406 -1.17347,5.653925 -3.73649,3.865333 z m -51.43408,-1.757211 c -1.75599,-2.115838 -0.69494,-7.399174 2.95145,-14.696243 1.81547,-3.633087 3.05557,-7.673305 3.05557,-9.955015 0,0 0.0241,-3.340332 -1.16826,-4.132344 -1.98877,-1.321013 -5.58448,-0.961395 -7.10878,0.876198 -1.97108,2.376194 0.12764,9.848529 -4.25658,6.387964 -2.06022,-1.709827 -1.44525,-6.951194 0.3567,-9.31199 3.34907,-4.387726 9.65876,-4.032211 13.58782,-2.271824 2.87551,1.288351 5.98472,5.899326 5.18482,9.086355 -0.31187,1.242576 -2.13245,4.534955 -4.04575,7.316399 -2.75788,4.009258 -3.61832,6.41978 -4.15244,11.633066 -0.68686,6.704127 -1.8938,8.09271 -4.40455,5.067434 z M 217.14137,38.337719 C 214.76968,37.380721 215.6979,34 218.33235,34 c 2.82372,0 3.82182,1.151591 2.95528,3.409758 -0.6125,1.59615 -1.82037,1.866478 -4.14626,0.927961 z"
         style="fill:#000000" />
</svg>
